<?xml version="1.0" encoding="UTF-8"?>
<svg width="930px" height="744px" viewBox="0 0 930 744" version="1.1" xmlns="http://www.w3.org/2000/svg" xmlns:xlink="http://www.w3.org/1999/xlink">
    <title>Pebble Transparent Hi res White Copy@2x</title>
    <defs>
        <linearGradient x1="50%" y1="0%" x2="50%" y2="100%" id="linearGradient-1">
            <stop stop-color="#68ACFF" offset="0%"></stop>
            <stop stop-color="#4851FF" offset="100%"></stop>
        </linearGradient>
    </defs>
    <g id="Pebble-Transparent-Hi-res-White-Copy" stroke="none" stroke-width="1" fill="none" fill-rule="evenodd">
        <path d="M256.089354,448.001923 C318.901307,458.644761 389.869883,464.634249 465,464.634249 C540.130117,464.634249 611.098693,458.644761 673.910646,448.008748 C825.804723,473.722303 930,526.614912 930,587.688211 C930,674.016828 721.812409,744 465,744 C208.187591,744 0,674.016828 0,587.688211 C0,526.614912 104.195277,473.722303 256.089354,448.001923 Z M610.788558,202.999182 C736.297087,221.442737 824,263.540328 824,312.522292 C824,378.508008 664.837229,432 468.5,432 C272.162771,432 113,378.508008 113,312.522292 C113,263.540328 200.702913,221.442737 326.211442,202.999182 C369.780865,209.405491 417.906179,212.957535 468.5,212.957535 C517.584307,212.957535 564.345211,209.614286 606.876643,203.568385 L610.788558,202.999182 Z M465,6.25277607e-13 C619.087445,6.25277607e-13 744,38.7273691 744,86.5 C744,134.272631 619.087445,173 465,173 C310.912555,173 186,134.272631 186,86.5 C186,38.7273691 310.912555,6.25277607e-13 465,6.25277607e-13 Z" id="Combined-Shape" fill="url(#linearGradient-1)"></path>
    </g>
</svg>